<svg xmlns="http://www.w3.org/2000/svg" width="22" height="10" viewBox="0 0 22 10" fill="none">
    <path d="M11.9515 2.38814C13.0216 1.22484 14.2 0.257917 15.8822 0.059391C17.8774 -0.176983 19.5603 0.415738 20.8182 1.88397C23.2422 4.71547 21.7569 8.90522 18.0064 9.81858C16.0433 10.297 14.3046 9.82072 12.8613 8.48889C11.0196 6.78999 9.19849 5.0711 7.37814 3.35221C6.87593 2.87803 6.30426 2.56739 5.58909 2.49169C4.09542 2.33316 2.68418 3.48289 2.65365 4.89114C2.62999 5.98446 3.26043 6.91211 4.30531 7.32058C5.33112 7.72121 6.47446 7.49269 7.28427 6.72643C7.54759 6.47721 7.81701 6.23298 8.07804 5.98089C8.16352 5.89805 8.22001 5.89377 8.30931 5.97875C8.84892 6.49077 9.39464 6.99851 9.93807 7.50768C10.0014 7.56696 10.0747 7.62051 9.97089 7.71049C9.43433 8.17324 8.95043 8.70527 8.35815 9.09161C5.33112 11.0683 1.17219 9.63648 0.186072 6.3051C-0.431394 4.21772 0.52648 1.91682 2.48726 0.777084C4.63809 -0.47263 7.30793 -0.196979 9.10537 1.47407C10.9891 3.22652 12.8567 4.99326 14.7404 6.74572C15.5205 7.47198 16.4608 7.70192 17.5064 7.377C18.5521 7.05136 19.1543 6.33509 19.326 5.32104C19.5458 4.02777 18.5177 2.73092 17.1294 2.52168C16.2051 2.38243 15.4113 2.62737 14.745 3.24009C14.4641 3.4986 14.1855 3.75926 13.9085 4.02134C13.8482 4.07847 13.7978 4.11775 13.72 4.04419C13.133 3.49289 12.5446 2.94373 11.9515 2.38814Z" fill="#FFCD1F"/>
</svg>
